# File created by Blade
# Date/Time:  Wed Sep 24 20:15:16 2014
# Frame Rate: 120.000 fps
#------------------------------------------------------
:FULLY-SPECIFIED
:DEGREES
4111
root -5.884118 32.694360 -4.119015 16.676531 -6.832295 -3.195823
Spine -21.799450 -4.227806 3.982896
Head 10.859662 6.502697 8.330965
LeftShoulder -8.505647 20.544189 10.002445
LeftArm 20.017404 22.867104 -77.119399
LeftForeArm -4.489365 -0.000000 19.152075
LeftHand -22.470833 -0.000000 -2.917509
LeftHandThumb1 -26.253704 0.000000 33.147579
RightShoulder -22.748858 12.083924 -13.069277
RightArm -35.663028 43.038301 61.066519
RightForeArm 59.556038 0.000000 28.498700
RightHand 1.156529 -0.000000 -38.877034
RightHandThumb1 -24.326973 -0.000000 -32.862282
LeftUpLeg -9.856779 12.337346 3.449017
LeftLeg 0.154224 -0.000000 -0.000000
LeftFoot -15.819074 10.798614 -18.887406
LeftToeBase 9.291131 -0.000000 -0.000000
RightUpLeg -13.668280 -1.120306 -1.903556
RightLeg 3.096802 -0.000000 -0.000000
RightFoot -9.575929 1.260726 -12.666422
RightToeBase -1.142168 -0.000000 0.000000
4112
root -5.874781 32.694145 -4.120320 16.694246 -6.871494 -3.149319
Spine -21.824188 -4.235387 3.920067
Head 10.848675 6.461357 8.333488
LeftShoulder -8.519485 20.538884 10.002834
LeftArm 20.036668 22.836110 -77.081006
LeftForeArm -4.545056 0.000000 19.171090
LeftHand -22.488916 -0.000000 -2.776930
LeftHandThumb1 -26.253704 0.000000 33.147579
RightShoulder -22.732649 12.114166 -13.095284
RightArm -36.024001 43.314382 60.674414
RightForeArm 59.152971 0.000000 29.652945
RightHand 1.016379 -0.000000 -38.939996
RightHandThumb1 -24.326973 -0.000000 -32.862282
LeftUpLeg -9.874393 12.347190 3.369269
LeftLeg 0.136001 -0.000000 -0.000000
LeftFoot -15.823439 10.874667 -18.721786
LeftToeBase 9.409118 -0.000000 -0.000000
RightUpLeg -13.695851 -1.188001 -1.954409
RightLeg 3.082079 -0.000000 -0.000000
RightFoot -9.596315 1.338263 -12.703678
RightToeBase -1.152858 -0.000000 0.000000
4113
root -5.871564 32.694358 -4.120402 16.705114 -6.878596 -3.149355
Spine -21.835401 -4.235731 3.903274
Head 10.826207 6.404249 8.345162
LeftShoulder -8.511339 20.522495 10.007394
LeftArm 20.050411 22.799916 -77.050840
LeftForeArm -4.536458 -0.000000 19.192827
LeftHand -22.476579 -0.000000 -2.822396
LeftHandThumb1 -26.253704 0.000000 33.147579
RightShoulder -22.762054 12.117567 -13.114976
RightArm -36.496298 43.809609 60.133122
RightForeArm 58.630275 -0.000000 30.920709
RightHand 0.939852 0.000000 -38.976321
RightHandThumb1 -24.326973 -0.000000 -32.862282
LeftUpLeg -9.879543 12.321776 3.365252
LeftLeg 0.124937 -0.000000 -0.000000
LeftFoot -15.814046 10.897635 -18.876782
LeftToeBase 9.259307 -0.000000 -0.000000
RightUpLeg -13.708531 -1.176250 -1.964182
RightLeg 3.082228 -0.000000 -0.000000
RightFoot -9.580933 1.340696 -12.682708
RightToeBase -1.192462 -0.000000 0.000000
4114
root -5.871628 32.694767 -4.117828 16.702958 -6.908521 -3.162009
Spine -21.840406 -4.239697 3.892718
Head 10.824458 6.356549 8.333129
LeftShoulder -8.542705 20.538569 9.994611
LeftArm 20.083615 22.766202 -76.999734
LeftForeArm -4.516568 -0.000000 19.233418
LeftHand -22.517123 0.000000 -2.728369
LeftHandThumb1 -26.253704 0.000000 33.147579
RightShoulder -22.753139 12.133218 -13.111746
RightArm -36.853625 44.090589 59.722311
RightForeArm 58.298591 0.000000 32.145374
RightHand 0.727521 -0.000000 -39.296271
RightHandThumb1 -24.326973 -0.000000 -32.862282
LeftUpLeg -9.857017 12.371380 3.366764
LeftLeg 0.103149 -0.000000 -0.000000
LeftFoot -15.804386 10.892968 -18.705745
LeftToeBase 9.427359 -0.000000 -0.000000
RightUpLeg -13.701786 -1.133078 -1.966032
RightLeg 3.078753 -0.000000 -0.000000
RightFoot -9.574573 1.344978 -12.658317
RightToeBase -1.169701 -0.000000 0.000000
4115
root -5.872294 32.694788 -4.116271 16.698617 -6.909250 -3.182452
Spine -21.837302 -4.245331 3.895744
Head 10.814842 6.312402 8.334162
LeftShoulder -8.536621 20.534773 9.995733
LeftArm 20.098493 22.724189 -76.971484
LeftForeArm -4.470968 -0.000000 19.272817
LeftHand -22.546559 -0.000000 -2.591142
LeftHandThumb1 -26.253704 0.000000 33.147579
RightShoulder -22.762921 12.118568 -13.120255
RightArm -37.186883 44.378982 59.353608
RightForeArm 57.857319 0.000000 33.367221
RightHand 0.524890 0.000000 -39.283704
RightHandThumb1 -24.326973 -0.000000 -32.862282
LeftUpLeg -9.836752 12.376830 3.393188
LeftLeg 0.087856 -0.000000 -0.000000
LeftFoot -15.801919 10.848940 -18.883644
LeftToeBase 9.279594 -0.000000 -0.000000
RightUpLeg -13.687043 -1.103640 -1.950408
RightLeg 3.068972 -0.000000 -0.000000
RightFoot -9.559050 1.316661 -12.652927
RightToeBase -1.150594 -0.000000 0.000000
4116
root -5.872902 32.694993 -4.116229 16.705213 -6.901690 -3.205879
Spine -21.841221 -4.262753 3.907409
Head 10.798194 6.289857 8.347207
LeftShoulder -8.548912 20.550348 9.985291
LeftArm 20.139308 22.668481 -76.937009
LeftForeArm -4.427874 -0.000000 19.315294
LeftHand -22.571101 -0.000000 -2.461913
LeftHandThumb1 -26.253704 0.000000 33.147579
RightShoulder -22.741406 12.139214 -13.114445
RightArm -37.548661 44.603116 58.964008
RightForeArm 57.568886 -0.000000 34.633757
RightHand 0.551628 -0.000000 -39.479660
RightHandThumb1 -24.326973 -0.000000 -32.862282
LeftUpLeg -9.835740 12.375446 3.420509
LeftLeg 0.080709 -0.000000 -0.000000
LeftFoot -15.826295 10.841514 -18.772391
LeftToeBase 9.497248 -0.000000 -0.000000
RightUpLeg -13.685520 -1.076382 -1.932568
RightLeg 3.058970 -0.000000 -0.000000
RightFoot -9.541032 1.314049 -12.627540
RightToeBase -1.159999 -0.000000 0.000000
4117
root -5.869604 32.695257 -4.116574 16.707428 -6.894159 -3.204154
Spine -21.842763 -4.283866 3.902025
Head 10.779760 6.245152 8.301393
LeftShoulder -8.549460 20.541196 9.972871
LeftArm 20.161288 22.653712 -76.892523
LeftForeArm -4.440844 0.000000 19.351545
LeftHand -22.579998 -0.000000 -2.429921
LeftHandThumb1 -26.253704 0.000000 33.147579
RightShoulder -22.739696 12.120587 -13.124257
RightArm -37.863097 44.887241 58.607507
RightForeArm 57.206873 0.000000 35.922286
RightHand 0.476711 0.000000 -39.793313
RightHandThumb1 -24.326973 -0.000000 -32.862282
LeftUpLeg -9.836689 12.350587 3.419886
LeftLeg 0.069638 -0.000000 -0.000000
LeftFoot -15.800651 10.843511 -18.896882
LeftToeBase 9.272908 -0.000000 -0.000000
RightUpLeg -13.686742 -1.083971 -1.937957
RightLeg 3.054460 -0.000000 -0.000000
RightFoot -9.527949 1.320993 -12.609169
RightToeBase -1.205236 -0.000000 0.000000
4118
root -5.867399 32.695441 -4.116048 16.707682 -6.902926 -3.202849
Spine -21.843722 -4.297760 3.888974
Head 10.763028 6.217131 8.286833
LeftShoulder -8.569298 20.544491 9.957329
LeftArm 20.181665 22.615650 -76.853715
LeftForeArm -4.349971 -0.000000 19.403294
LeftHand -22.605726 0.000000 -2.861871
LeftHandThumb1 -26.253704 0.000000 33.147579
RightShoulder -22.719838 12.116754 -13.109046
RightArm -38.283729 45.253170 58.132173
RightForeArm 56.893846 -0.000000 37.300087
RightHand 0.265655 -0.000000 -39.972543
RightHandThumb1 -24.326973 -0.000000 -32.862282
LeftUpLeg -9.834726 12.359310 3.408000
LeftLeg 0.065361 -0.000000 -0.000000
LeftFoot -15.810134 10.879756 -18.730464
LeftToeBase 9.438967 -0.000000 -0.000000
RightUpLeg -13.686172 -1.081989 -1.945048
RightLeg 3.053156 -0.000000 -0.000000
RightFoot -9.528300 1.334821 -12.607064
RightToeBase -1.196644 -0.000000 0.000000
4119
root -5.865180 32.695343 -4.116380 16.710086 -6.910955 -3.208438
Spine -21.839912 -4.291976 3.879342
Head 10.736846 6.185923 8.268703
LeftShoulder -8.568270 20.545224 9.951282
LeftArm 20.208319 22.566839 -76.824644
LeftForeArm -4.373979 -0.000000 19.445296
LeftHand -22.591954 -0.000000 -2.726848
LeftHandThumb1 -26.253704 0.000000 33.147579
RightShoulder -22.739912 12.100939 -13.099532
RightArm -38.545240 45.523397 57.790784
RightForeArm 57.454680 -0.000000 38.739479
RightHand 0.613433 -0.000000 -40.276694
RightHandThumb1 -24.326973 -0.000000 -32.862282
LeftUpLeg -9.832732 12.367298 3.410169
LeftLeg 0.066831 -0.000000 -0.000000
LeftFoot -15.821398 10.859068 -18.747770
LeftToeBase 9.447970 -0.000000 -0.000000
RightUpLeg -13.691924 -1.088157 -1.943441
RightLeg 3.054594 -0.000000 -0.000000
RightFoot -9.525624 1.347527 -12.595777
RightToeBase -1.214397 -0.000000 0.000000
4120
root -5.862464 32.695202 -4.115601 16.709985 -6.916670 -3.205671
Spine -21.837030 -4.292128 3.861721
Head 10.710102 6.164409 8.250100
LeftShoulder -8.575567 20.558725 9.937725
LeftArm 20.246706 22.522697 -76.785632
LeftForeArm -4.439868 0.000000 19.484412
LeftHand -22.561635 -0.000000 -2.411601
LeftHandThumb1 -26.253704 0.000000 33.147579
RightShoulder -22.770130 12.076813 -13.110174
RightArm -38.999722 45.949452 57.304834
RightForeArm 56.419902 -0.000000 40.122759
RightHand 0.064546 -0.000000 -40.218034
RightHandThumb1 -24.326973 -0.000000 -32.862282
LeftUpLeg -9.829428 12.354911 3.404409
LeftLeg 0.062979 -0.000000 -0.000000
LeftFoot -15.826887 10.862824 -18.780560
LeftToeBase 9.455871 -0.000000 -0.000000
RightUpLeg -13.692114 -1.079283 -1.953841
RightLeg 3.054385 -0.000000 -0.000000
RightFoot -9.531449 1.345605 -12.589679
RightToeBase -1.183898 -0.000000 0.000000
4121
root -5.860056 32.695176 -4.116254 16.711532 -6.923373 -3.209939
Spine -21.832904 -4.289226 3.858842
Head 10.682004 6.146769 8.214553
LeftShoulder -8.574134 20.546505 9.925313
LeftArm 20.253265 22.483446 -76.761853
LeftForeArm -4.442030 0.000000 19.530715
LeftHand -22.553644 -0.000000 -2.258052
LeftHandThumb1 -26.253704 0.000000 33.147579
RightShoulder -22.775762 12.066349 -13.123646
RightArm -39.434808 46.287820 56.850082
RightForeArm 55.667910 -0.000000 41.532965
RightHand -0.164848 -0.000000 -40.369685
RightHandThumb1 -24.326973 -0.000000 -32.862282
LeftUpLeg -9.827302 12.352097 3.406416
LeftLeg 0.058353 -0.000000 -0.000000
LeftFoot -15.819619 10.853458 -18.906595
LeftToeBase 9.311117 -0.000000 -0.000000
RightUpLeg -13.696696 -1.055439 -1.959115
RightLeg 3.056918 -0.000000 -0.000000
RightFoot -9.520696 1.323835 -12.600022
RightToeBase -1.174567 -0.000000 0.000000
4122
root -5.857085 32.694992 -4.115978 16.707298 -6.925610 -3.205299
Spine -21.826868 -4.305143 3.849417
Head 10.662744 6.156692 8.199788
LeftShoulder -8.575698 20.534887 9.918190
LeftArm 20.254432 22.469624 -76.736781
LeftForeArm -4.426899 -0.000000 19.580679
LeftHand -22.572472 -0.000000 -2.261325
LeftHandThumb1 -26.253704 0.000000 33.147579
RightShoulder -22.777902 12.065817 -13.132546
RightArm -39.862082 46.598126 56.396626
RightForeArm 55.069940 0.000000 43.000242
RightHand -0.442006 -0.000000 -40.172557
RightHandThumb1 -24.326973 -0.000000 -32.862282
LeftUpLeg -9.821409 12.339919 3.398135
LeftLeg 0.056789 -0.000000 -0.000000
LeftFoot -15.830040 10.852754 -18.908085
LeftToeBase 9.339620 -0.000000 -0.000000
RightUpLeg -13.700543 -1.071665 -1.965588
RightLeg 3.071952 -0.000000 -0.000000
RightFoot -9.531648 1.332776 -12.597901
RightToeBase -1.172955 -0.000000 0.000000
4123
root -5.854214 32.694767 -4.115675 16.706003 -6.936272 -3.202442
Spine -21.822806 -4.308443 3.834859
Head 10.644720 6.166913 8.204989
LeftShoulder -8.583468 20.547686 9.917809
LeftArm 20.280029 22.444775 -76.716960
LeftForeArm -4.387394 -0.000000 19.625046
LeftHand -22.579086 -0.000000 -2.180035
LeftHandThumb1 -26.253704 0.000000 33.147579
RightShoulder -22.795219 12.032482 -13.158647
RightArm -40.177870 46.888979 56.024346
RightForeArm 55.424809 -0.000000 44.209459
RightHand 0.794608 -0.000000 -35.791576
RightHandThumb1 -24.326973 -0.000000 -32.862282
LeftUpLeg -9.816382 12.348473 3.384694
LeftLeg 0.047511 -0.000000 -0.000000
LeftFoot -15.829812 10.905852 -18.717129
LeftToeBase 9.439860 -0.000000 -0.000000
RightUpLeg -13.698473 -1.058611 -1.977704
RightLeg 3.066882 -0.000000 -0.000000
RightFoot -9.529538 1.334725 -12.588941
RightToeBase -1.173330 -0.000000 0.000000
